<svg xmlns="http://www.w3.org/2000/svg" viewBox="0 0 84 48" width="84" height="48">
  <defs>
    <linearGradient id="g" x1="0" y1="0" x2="1" y2="0.4">
      <stop offset="0%" stop-color="#3b82f6"/>
      <stop offset="100%" stop-color="#8b5cf6"/>
    </linearGradient>
  </defs>
  <path
    d="M2 42 Q3 40 4 36 C6 28 8 8 10 6 Q11 4.5 12 6 C14 10 17 30 18 34 Q18.5 36 19 34 C21 26 24 8 26 6 Q27 4.5 28 6 C30 10 33 30 34 34 Q34.5 36 35 34 C37 26 40 8 42 6 Q43 4.5 44 6 C46 10 48 28 50 36 Q51 40 52 42"
    fill="none"
    stroke="url(#g)"
    stroke-width="2.6"
    stroke-linecap="round"
    stroke-linejoin="round"
  />
  <path
    d="M78 12 C76 8 72 5 66 5 C58 5 54 12 54 24 C54 36 58 43 66 43 C72 43 76 40 78 36"
    fill="none"
    stroke="url(#g)"
    stroke-width="2.6"
    stroke-linecap="round"
    stroke-linejoin="round"
  />
</svg>
